<svg xmlns="http://www.w3.org/2000/svg" viewBox="0 0 512 512"><!--!Font Awesome Free 6.6.0 by @fontawesome - https://fontawesome.com License - https://fontawesome.com/license/free Copyright 2024 Fonticons, Inc.--><path d="M330.7 263.1V173.4l-52.8-24.2C219.4 218.8 197.6 400 56 400a56 56 0 0 0 0 112c212.6 0 370.7-122.9 419.2-210.3l-37.1-38.5zm131.1-128.4C493.9 74.9 477.2 26.5 458.6 3a8 8 0 0 0 -11.9-.6l-22.9 23a8.1 8.1 0 0 0 -.9 10.2c6.9 10.4 17.1 35.1-1.4 72.3A142.9 142.9 0 0 0 364.3 96c-28 0-54 8.5-76.3 22.6l74.7 34.3v78.2h89.1L506.4 288c3.3-12.6 5.6-25.6 5.6-39.3a154 154 0 0 0 -50.2-113.9z"/></svg>